<svg width="76" height="76" viewBox="0 0 76 76" fill="none" xmlns="http://www.w3.org/2000/svg">
<rect width="76" height="76" rx="16" fill="#042146"/>
<path d="M37.6025 19.25C29.8575 19.25 23.5275 24.9138 23.5275 31.975C23.5275 32.9013 23.6375 33.815 23.8525 34.7037L21.86 39.165C21.781 39.3417 21.7442 39.5343 21.7523 39.7277C21.7605 39.921 21.8134 40.1098 21.907 40.2792C22.0005 40.4487 22.1322 40.594 22.2915 40.7039C22.4508 40.8138 22.6334 40.8852 22.825 40.9125C24.945 41.215 25.82 42.13 25.82 43.9325V48.29C25.82 48.953 26.0834 49.5889 26.5522 50.0578C27.0211 50.5266 27.657 50.79 28.32 50.79H29.1287C29.7918 50.79 30.4277 51.0534 30.8965 51.5222C31.3654 51.9911 31.6287 52.627 31.6287 53.29V55.5C31.6287 55.8315 31.7604 56.1495 31.9949 56.3839C32.2293 56.6183 32.5472 56.75 32.8787 56.75H46.3787C46.7103 56.75 47.0282 56.6183 47.2626 56.3839C47.4971 56.1495 47.6287 55.8315 47.6287 55.5C47.6287 55.1685 47.4971 54.8505 47.2626 54.6161C47.0282 54.3817 46.7103 54.25 46.3787 54.25H34.1287V53.2888C34.1287 51.9627 33.602 50.6909 32.6643 49.7532C31.7266 48.8155 30.4548 48.2888 29.1287 48.2888H28.3187V43.9313C28.3187 41.3663 27.0612 39.6075 24.7562 38.8087L26.3137 35.3213C26.4335 35.0535 26.4552 34.7521 26.375 34.47C26.144 33.658 26.0271 32.8179 26.0275 31.9737C26.0275 26.36 31.1812 21.7488 37.6025 21.7488C44.0237 21.7488 49.1775 26.3587 49.1775 31.9737C49.1775 32.3053 49.3092 32.6232 49.5436 32.8576C49.778 33.0921 50.096 33.2237 50.4275 33.2237C50.759 33.2237 51.077 33.0921 51.3114 32.8576C51.5458 32.6232 51.6775 32.3053 51.6775 31.9737C51.6775 24.9138 45.3462 19.25 37.6025 19.25ZM53.3125 35.5C52.981 35.5 52.663 35.6317 52.4286 35.8661C52.1942 36.1005 52.0625 36.4185 52.0625 36.75V50.8125C52.0625 51.144 52.1942 51.462 52.4286 51.6964C52.663 51.9308 52.981 52.0625 53.3125 52.0625C53.644 52.0625 53.962 51.9308 54.1964 51.6964C54.4308 51.462 54.5625 51.144 54.5625 50.8125V36.75C54.5625 36.4185 54.4308 36.1005 54.1964 35.8661C53.962 35.6317 53.644 35.5 53.3125 35.5Z" fill="#03D5D6"/>
<path d="M44.3237 36.2287C43.865 35.23 42.4325 35.2662 42.0262 36.2887L36.8387 49.3263C36.7161 49.6344 36.7209 49.9787 36.852 50.2833C36.9832 50.5879 37.23 50.828 37.5381 50.9506C37.8463 51.0733 38.1905 51.0685 38.4952 50.9374C38.7998 50.8062 39.0398 50.5594 39.1625 50.2513L40.4362 47.0512C40.4587 47.0525 40.4787 47.0637 40.5012 47.0637H46.55L48.0413 50.31C48.1797 50.6112 48.432 50.8451 48.7429 50.9602C49.0537 51.0753 49.3976 51.0622 49.6987 50.9238C49.9999 50.7853 50.2338 50.533 50.3489 50.2221C50.464 49.9113 50.4509 49.5674 50.3125 49.2662L44.3237 36.2287ZM41.425 44.5625L43.2712 39.925L45.4012 44.5625H41.425Z" fill="#03D5D6"/>
</svg>
