<svg width="76" height="76" viewBox="0 0 76 76" fill="none" xmlns="http://www.w3.org/2000/svg">
<rect width="76" height="76" rx="16" fill="#042146"/>
<path d="M38 60.1037C37.3956 60.1037 36.7912 59.9478 36.252 59.6371L19.748 50.1077C18.6695 49.4858 18 48.3256 18 47.0807V28.0234C18 26.778 18.67 25.6179 19.7485 24.9959L36.252 15.467C37.3305 14.8446 38.6695 14.8441 39.7485 15.467L56.252 24.9954C57.33 25.6174 58 26.7775 58 28.0229V47.0802C58 48.3256 57.33 49.4858 56.2515 50.1077L39.748 59.6366C39.2088 59.9478 38.6044 60.1037 38 60.1037ZM38 18.0059C37.9158 18.0059 37.8316 18.0274 37.7559 18.071L21.2515 27.5999C21.1006 27.6871 21.0069 27.8495 21.0069 28.0234V47.0807C21.0069 47.2546 21.1006 47.417 21.251 47.5037L37.7554 57.0331C37.9058 57.1193 38.0932 57.1203 38.2441 57.0331L54.7485 47.5042C54.8994 47.417 54.9926 47.2551 54.9926 47.0807V28.0234C54.9926 27.849 54.8989 27.6871 54.749 27.6004L38.2441 18.071C38.1689 18.0274 38.0842 18.0059 38 18.0059Z" fill="#03D5D6"/>
<path d="M31.5462 44.2983C31.0355 44.2983 30.5479 44.0372 30.2687 43.5877L26.5411 37.5824V42.7949C26.5411 43.6253 25.8681 44.2983 25.0377 44.2983C24.2073 44.2983 23.5342 43.6253 23.5342 42.7949V32.3087C23.5342 31.6372 23.9798 31.0468 24.6252 30.8629C25.2727 30.68 25.9613 30.9456 26.3151 31.5159L30.0427 37.5212V32.3087C30.0427 31.4783 30.7157 30.8053 31.5462 30.8053C32.3766 30.8053 33.0496 31.4783 33.0496 32.3087V42.7949C33.0496 43.4664 32.6041 44.0568 31.9586 44.2407C31.8218 44.2798 31.683 44.2983 31.5462 44.2983Z" fill="#03D5D6"/>
<path d="M36.6148 44.2983C35.7844 44.2983 35.1114 43.6253 35.1114 42.7949V32.3087C35.1114 31.4783 35.7844 30.8053 36.6148 30.8053H40.7849C41.6153 30.8053 42.2884 31.4783 42.2884 32.3087C42.2884 33.1391 41.6153 33.8122 40.7849 33.8122H38.1183V42.7949C38.1183 43.6253 37.4452 44.2983 36.6148 44.2983Z" fill="#03D5D6"/>
<path d="M40.7849 39.0553H36.6148C35.7844 39.0553 35.1114 38.3822 35.1114 37.5518C35.1114 36.7214 35.7844 36.0484 36.6148 36.0484H40.7849C41.6153 36.0484 42.2884 36.7214 42.2884 37.5518C42.2884 38.3822 41.6153 39.0553 40.7849 39.0553Z" fill="#03D5D6"/>
<path d="M50.9623 33.8122H45.0031C44.1727 33.8122 43.4996 33.1391 43.4996 32.3087C43.4996 31.4783 44.1727 30.8053 45.0031 30.8053H50.9623C51.7927 30.8053 52.4658 31.4783 52.4658 32.3087C52.4658 33.1391 51.7927 33.8122 50.9623 33.8122Z" fill="#03D5D6"/>
<path d="M47.9825 44.2983C47.1521 44.2983 46.479 43.6253 46.479 42.7949V32.3087C46.479 31.4783 47.1521 30.8053 47.9825 30.8053C48.8129 30.8053 49.4859 31.4783 49.4859 32.3087V42.7949C49.4859 43.6253 48.8134 44.2983 47.9825 44.2983Z" fill="#03D5D6"/>
</svg>
