<svg width="72" height="72" viewBox="0 0 72 72" fill="none" xmlns="http://www.w3.org/2000/svg">
<rect width="72" height="72" rx="16" fill="#232323"/>
<path d="M49.9133 23.5337C54.4308 30.0715 56.6618 37.446 55.8278 45.9357C55.8243 45.9716 55.8053 46.0046 55.7753 46.0262C52.3543 48.4988 49.0398 49.9994 45.7718 50.9945C45.7464 51.0021 45.7191 51.0017 45.6939 50.9933C45.6687 50.9849 45.6468 50.969 45.6313 50.9478C44.8763 49.9138 44.1903 48.8236 43.5893 47.6789C43.5548 47.6114 43.5863 47.5302 43.6573 47.5037C44.7468 47.0996 45.7828 46.6153 46.7793 46.042C46.8578 45.9967 46.8628 45.8859 46.7903 45.8328C46.5788 45.6783 46.3693 45.5158 46.1688 45.3534C46.1313 45.3234 46.0808 45.3175 46.0383 45.3377C39.5688 48.2783 32.4818 48.2783 25.9358 45.3377C25.8933 45.319 25.8428 45.3254 25.8063 45.3549C25.6063 45.5173 25.3963 45.6783 25.1868 45.8328C25.1143 45.8859 25.1203 45.9967 25.1993 46.042C26.1958 46.6045 27.2318 47.0996 28.3198 47.5056C28.3903 47.5322 28.4238 47.6114 28.3888 47.6789C27.8008 48.8251 27.1148 49.9152 26.3458 50.9492C26.3123 50.9911 26.2573 51.0103 26.2053 50.9945C22.9528 49.9994 19.6383 48.4988 16.2174 46.0262C16.1889 46.0046 16.1684 45.9701 16.1654 45.9342C15.4684 38.5907 16.8888 31.1552 22.0743 23.5322C22.0868 23.5121 22.1058 23.4963 22.1278 23.487C24.6793 22.3343 27.4128 21.4864 30.2698 21.0021C30.3218 20.9942 30.3738 21.0178 30.4008 21.0631C30.7538 21.6783 31.1573 22.4672 31.4303 23.1119C34.4418 22.6592 37.5003 22.6592 40.5748 23.1119C40.8478 22.481 41.2373 21.6783 41.5888 21.0631C41.6013 21.0406 41.6207 21.0226 41.6443 21.0117C41.6678 21.0007 41.6942 20.9974 41.7198 21.0021C44.5783 21.4878 47.3118 22.3358 49.8613 23.487C49.8838 23.4963 49.9023 23.5121 49.9133 23.5337ZM32.9613 37.4962C32.9928 35.3253 31.3848 33.5289 29.3663 33.5289C27.3643 33.5289 25.7718 35.3095 25.7718 37.4962C25.7718 39.6823 27.3958 41.4629 29.3663 41.4629C31.3688 41.4629 32.9613 39.6823 32.9613 37.4962ZM46.2523 37.4962C46.2838 35.3253 44.6758 33.5289 42.6578 33.5289C40.6553 33.5289 39.0628 35.3095 39.0628 37.4962C39.0628 39.6823 40.6868 41.4629 42.6578 41.4629C44.6758 41.4629 46.2523 39.6823 46.2523 37.4962Z" fill="#1E69FF"/>
</svg>
