<svg width="72" height="72" viewBox="0 0 72 72" fill="none" xmlns="http://www.w3.org/2000/svg">
<rect width="72" height="72" rx="16" fill="#232323"/>
<g clip-path="url(#clip0_1_165)">
<path d="M35.9227 17C24.9211 17 16 25.7105 16 36.4557C16 45.0519 21.7084 52.3447 29.6244 54.9173C30.62 55.0974 30.9856 54.4953 30.9856 53.9814C30.9856 53.5175 30.967 51.9847 30.9586 50.3591C25.4159 51.536 24.2464 48.0635 24.2464 48.0635C23.3402 45.8147 22.0344 45.2169 22.0344 45.2169C20.2269 44.0093 22.1706 44.034 22.1706 44.034C24.1713 44.1713 25.2247 46.039 25.2247 46.039C27.0016 49.0134 29.8853 48.1534 31.0222 47.6564C31.2009 46.3988 31.7173 45.5407 32.287 45.0548C27.862 44.5627 23.2102 42.8945 23.2102 35.4396C23.2102 33.3156 23.9884 31.5799 25.263 30.2175C25.0561 29.7274 24.3742 27.7486 25.4559 25.0687C25.4559 25.0687 27.1289 24.5458 30.9361 27.063C32.5252 26.6318 34.2295 26.4157 35.9227 26.4084C37.6158 26.4157 39.3214 26.6318 40.9136 27.063C44.7163 24.5458 46.3869 25.0687 46.3869 25.0687C47.4713 27.7486 46.7891 29.7274 46.5822 30.2175C47.8595 31.5799 48.6325 33.3155 48.6325 35.4396C48.6325 42.9122 43.9719 44.5577 39.5356 45.0392C40.2502 45.643 40.8869 46.8271 40.8869 48.6422C40.8869 51.2453 40.8638 53.3405 40.8638 53.9814C40.8638 54.4991 41.2223 55.1058 42.2323 54.9147C50.1439 52.3392 55.8452 45.049 55.8452 36.4557C55.8452 25.7105 46.9253 17 35.9227 17Z" fill="#1E69FF"/>
<path d="M23.4617 44.7151C23.418 44.8117 23.262 44.8407 23.1203 44.7745C22.9758 44.711 22.8945 44.5792 22.9414 44.4821C22.9844 44.3827 23.1403 44.3549 23.2845 44.4217C23.4294 44.485 23.5119 44.6181 23.4617 44.7151ZM24.4417 45.569C24.3467 45.6551 24.1609 45.6151 24.0348 45.4792C23.9045 45.3435 23.8802 45.1622 23.9766 45.0748C24.0745 44.9889 24.2547 45.029 24.3853 45.1648C24.5156 45.302 24.5409 45.4822 24.4416 45.5692M25.1141 46.6616C24.9919 46.7444 24.7922 46.6667 24.6689 46.4937C24.5469 46.3208 24.5469 46.1133 24.6716 46.0302C24.7953 45.947 24.9919 46.0218 25.1169 46.1934C25.2387 46.3694 25.2387 46.5769 25.1139 46.6617M26.2509 47.927C26.1417 48.0445 25.9092 48.013 25.7389 47.8525C25.5648 47.6956 25.5162 47.473 25.6258 47.3554C25.7362 47.2376 25.9702 47.2707 26.1417 47.4298C26.3147 47.5864 26.3673 47.8107 26.2509 47.927ZM27.7203 48.3542C27.6723 48.5065 27.4483 48.5758 27.2227 48.5111C26.9973 48.4444 26.8498 48.2659 26.8953 48.1119C26.9422 47.9586 27.1672 47.8864 27.3945 47.9557C27.6195 48.022 27.7672 48.1992 27.7203 48.3542ZM29.3928 48.5353C29.3984 48.6959 29.207 48.8289 28.9702 48.8318C28.7319 48.8369 28.5392 48.707 28.5367 48.5492C28.5367 48.3872 28.7237 48.2553 28.9619 48.2515C29.1987 48.2469 29.3928 48.3759 29.3928 48.5353ZM31.0356 48.4738C31.0641 48.6304 30.8994 48.7912 30.6642 48.834C30.433 48.8752 30.2189 48.7786 30.1894 48.6234C30.1606 48.4629 30.3284 48.3022 30.5592 48.2605C30.7948 48.2206 31.0056 48.3147 31.0356 48.4738Z" fill="#1E69FF"/>
</g>
<defs>
<clipPath id="clip0_1_165">
<rect width="40" height="38" fill="white" transform="translate(16 17)"/>
</clipPath>
</defs>
</svg>
