<svg width="370" height="63" viewBox="0 0 370 63" fill="none" xmlns="http://www.w3.org/2000/svg">
<path d="M102.782 25.8285C99.4266 23.8895 95.8283 22.6404 91.9877 22.0811V54.0178H82.9269V22.0811C79.0863 22.6404 75.4694 23.8895 72.0762 25.8285L69 19.0608C71.6847 17.4574 74.5931 16.2456 77.7253 15.4253C80.8574 14.6049 84.0828 14.1948 87.4014 14.1948C90.7572 14.1948 94.0013 14.6049 97.1334 15.4253C100.303 16.2456 103.211 17.4574 105.859 19.0608L102.782 25.8285Z" fill="white"/>
<path d="M120.569 54.4653C117.4 54.4653 114.547 53.8127 112.012 52.5077C109.513 51.1653 107.556 49.3196 106.139 46.9705C104.722 44.6214 104.013 41.9553 104.013 38.9723C104.013 35.9893 104.722 33.3233 106.139 30.9742C107.556 28.625 109.513 26.798 112.012 25.4929C114.547 24.1505 117.4 23.4794 120.569 23.4794C123.738 23.4794 126.572 24.1505 129.071 25.4929C131.569 26.798 133.526 28.625 134.943 30.9742C136.36 33.3233 137.069 35.9893 137.069 38.9723C137.069 41.9553 136.36 44.6214 134.943 46.9705C133.526 49.3196 131.569 51.1653 129.071 52.5077C126.572 53.8127 123.738 54.4653 120.569 54.4653ZM120.569 47.3061C122.806 47.3061 124.633 46.5603 126.05 45.0688C127.505 43.54 128.232 41.5079 128.232 38.9723C128.232 36.4368 127.505 34.4232 126.05 32.9317C124.633 31.403 122.806 30.6386 120.569 30.6386C118.332 30.6386 116.486 31.403 115.032 32.9317C113.578 34.4232 112.851 36.4368 112.851 38.9723C112.851 41.5079 113.578 43.54 115.032 45.0688C116.486 46.5603 118.332 47.3061 120.569 47.3061Z" fill="white"/>
<path d="M153.024 54.4653C150.526 54.4653 148.084 54.167 145.697 53.5704C143.311 52.9365 141.409 52.1534 139.992 51.2213L142.901 44.957C144.243 45.8146 145.865 46.523 147.767 47.0823C149.669 47.6044 151.533 47.8654 153.36 47.8654C157.051 47.8654 158.897 46.9518 158.897 45.1248C158.897 44.2671 158.394 43.6519 157.387 43.279C156.38 42.9061 154.833 42.5892 152.745 42.3282C150.284 41.9553 148.252 41.5265 146.648 41.0418C145.045 40.557 143.647 39.6994 142.453 38.4689C141.298 37.2384 140.72 35.4859 140.72 33.2114C140.72 31.3097 141.26 29.6318 142.342 28.1776C143.46 26.6861 145.064 25.5302 147.152 24.7099C149.277 23.8895 151.775 23.4794 154.646 23.4794C156.772 23.4794 158.879 23.7217 160.967 24.2065C163.092 24.6539 164.845 25.2878 166.224 26.1081L163.316 32.3165C160.668 30.825 157.779 30.0793 154.646 30.0793C152.782 30.0793 151.384 30.3403 150.452 30.8623C149.519 31.3843 149.053 32.0555 149.053 32.8758C149.053 33.808 149.557 34.4605 150.563 34.8334C151.57 35.2063 153.174 35.5605 155.374 35.8961C157.835 36.3063 159.848 36.7537 161.414 37.2384C162.98 37.6859 164.341 38.5249 165.497 39.7554C166.653 40.9858 167.231 42.7011 167.231 44.901C167.231 46.7654 166.672 48.4247 165.553 49.8789C164.434 51.3331 162.794 52.4704 160.631 53.2907C158.506 54.0737 155.97 54.4653 153.024 54.4653Z" fill="white"/>
<path d="M190.904 23.4794C194.633 23.4794 197.634 24.598 199.909 26.8352C202.221 29.0725 203.377 32.3911 203.377 36.791V54.0178H194.651V38.1333C194.651 35.7469 194.129 33.9758 193.085 32.8199C192.041 31.6267 190.531 31.0301 188.555 31.0301C186.355 31.0301 184.602 31.7199 183.297 33.0995C181.992 34.4419 181.34 36.4554 181.34 39.1401V54.0178H172.614V12.5168H181.34V27.059C182.496 25.9031 183.894 25.0268 185.534 24.4302C187.175 23.7963 188.965 23.4794 190.904 23.4794Z" fill="white"/>
<path d="M211.286 23.9268H220.011V54.0178H211.286V23.9268ZM215.648 19.732C214.045 19.732 212.74 19.2659 211.733 18.3337C210.726 17.4015 210.223 16.2456 210.223 14.866C210.223 13.4863 210.726 12.3304 211.733 11.3982C212.74 10.466 214.045 9.99994 215.648 9.99994C217.252 9.99994 218.557 10.4474 219.563 11.3423C220.57 12.2372 221.074 13.3558 221.074 14.6982C221.074 16.1524 220.57 17.3642 219.563 18.3337C218.557 19.2659 217.252 19.732 215.648 19.732Z" fill="white"/>
<path d="M273.413 14.1948C278.037 14.1948 281.635 15.5558 284.208 18.2778C286.78 20.9625 288.067 24.859 288.067 29.9674V54.0178H279.006V30.247C279.006 27.4878 278.279 25.4183 276.825 24.0387C275.408 22.6218 273.525 21.9133 271.176 21.9133C268.603 21.9133 266.552 22.659 265.023 24.1505C263.494 25.6048 262.73 27.8234 262.73 30.8064V54.0178H253.669V30.247C253.669 27.4878 252.998 25.4183 251.656 24.0387C250.313 22.6218 248.486 21.9133 246.174 21.9133C243.639 21.9133 241.607 22.659 240.078 24.1505C238.549 25.6048 237.785 27.8234 237.785 30.8064V54.0178H228.724V14.866H237.505V19.676C238.698 17.9235 240.283 16.5812 242.259 15.649C244.235 14.6795 246.51 14.1948 249.083 14.1948C251.768 14.1948 254.117 14.6982 256.13 15.7049C258.144 16.6744 259.691 18.0913 260.772 19.9557C262.115 18.0913 263.867 16.6744 266.03 15.7049C268.23 14.6982 270.691 14.1948 273.413 14.1948Z" fill="white"/>
<path d="M296.384 23.9268H305.109V54.0178H296.384V23.9268ZM300.747 19.732C299.143 19.732 297.838 19.2659 296.831 18.3337C295.825 17.4015 295.321 16.2456 295.321 14.866C295.321 13.4863 295.825 12.3304 296.831 11.3982C297.838 10.466 299.143 9.99994 300.747 9.99994C302.35 9.99994 303.655 10.4474 304.662 11.3423C305.669 12.2372 306.172 13.3558 306.172 14.6982C306.172 16.1524 305.669 17.3642 304.662 18.3337C303.655 19.2659 302.35 19.732 300.747 19.732Z" fill="white"/>
<path d="M331.497 23.4794C335.225 23.4794 338.227 24.598 340.502 26.8352C342.813 29.0725 343.969 32.3911 343.969 36.791V54.0178H335.244V38.1333C335.244 35.7469 334.722 33.9758 333.678 32.8199C332.634 31.6267 331.124 31.0301 329.147 31.0301C326.948 31.0301 325.195 31.7199 323.89 33.0995C322.585 34.4419 321.932 36.4554 321.932 39.1401V54.0178H313.207V23.9268H321.541V27.4505C322.697 26.1827 324.132 25.2132 325.848 24.5421C327.563 23.8336 329.446 23.4794 331.497 23.4794Z" fill="white"/>
<path d="M370 52.5636C369.142 53.1975 368.08 53.6822 366.812 54.0178C365.581 54.3161 364.295 54.4653 362.953 54.4653C359.336 54.4653 356.558 53.5517 354.619 51.7246C352.68 49.8975 351.71 47.2129 351.71 43.6705V17.271H360.436V24.598H367.875V31.3097H360.436V43.5587C360.436 44.8265 360.753 45.8146 361.387 46.523C362.02 47.1942 362.934 47.5298 364.127 47.5298C365.47 47.5298 366.663 47.1569 367.707 46.4112L370 52.5636Z" fill="white"/>
<path d="M31.9102 2L31.9102 7.24453" stroke="white" stroke-width="2.0917" stroke-linecap="round"/>
<path d="M31.9648 56.6305L31.9648 61.875" stroke="white" stroke-width="2.0917" stroke-linecap="round"/>
<path d="M53.0872 10.7492L49.3787 14.4576" stroke="white" stroke-width="2.0917" stroke-linecap="round"/>
<path d="M14.4963 49.4174L10.7878 53.1259" stroke="white" stroke-width="2.0917" stroke-linecap="round"/>
<path d="M61.875 31.9102L56.6305 31.9102" stroke="white" stroke-width="2.0917" stroke-linecap="round"/>
<path d="M7.24451 31.9647L1.99998 31.9647" stroke="white" stroke-width="2.0917" stroke-linecap="round"/>
<path d="M53.1258 53.0872L49.4174 49.3787" stroke="white" stroke-width="2.0917" stroke-linecap="round"/>
<path d="M14.4576 14.4962L10.7492 10.7877" stroke="white" stroke-width="2.0917" stroke-linecap="round"/>
<path d="M52.9536 28.1436L53.7624 25.9722L51.4536 20.3997L49.3464 19.438L46.9069 20.2512L46.2976 20.0607C45.5044 19.0857 44.607 18.1906 43.6254 17.3929L43.4349 16.7792L44.248 14.3374L43.2864 12.2303L37.7139 9.92151L35.5447 10.7325L34.3925 13.0346L33.8253 13.3315C32.5668 13.2008 31.2994 13.1986 30.0497 13.3271L29.4825 13.0324L28.3325 10.7347L26.1633 9.92151L20.5885 12.2303L19.6269 14.3374L20.4401 16.7747L20.2473 17.3863C19.2724 18.1795 18.375 19.0769 17.5796 20.0584L16.9681 20.249L14.5285 19.4358L12.4214 20.3974L10.1126 25.9722L10.9213 28.1436L13.2235 29.2958L13.5204 29.863C13.3897 31.1193 13.3897 32.3867 13.516 33.6386L13.2213 34.2058L10.9236 35.3558L10.1148 37.5272L12.4236 43.0998L14.5308 44.0614L16.9681 43.2504L17.5774 43.441C18.3706 44.4159 19.268 45.311 20.2495 46.1087L20.4401 46.718L19.6269 49.1598L20.5908 51.2669L26.1633 53.5757L28.3347 52.7647L29.4847 50.4648L30.0519 50.1679C31.3104 50.2986 32.5778 50.2986 33.8297 50.1701L34.3947 50.467L35.5447 52.7647L37.7139 53.5735L43.2864 51.2647L44.248 49.1575L43.4371 46.7202L43.6276 46.1109C44.6048 45.3155 45.4999 44.4181 46.2954 43.4388L46.9047 43.2482L49.3464 44.0614L51.4536 43.0998L53.7624 37.525L52.9536 35.3536L50.6515 34.2014L50.3546 33.6364C50.4853 32.3801 50.4853 31.1127 50.359 29.8586L50.6537 29.2914L52.9536 28.1436ZM49.1448 27.7559L48.2519 29.4664L48.2895 29.781C48.4446 31.0795 48.4446 32.4 48.2851 33.7051L48.2474 34.0219L49.1426 35.7347L51.314 36.8204L51.5599 37.4807L49.8671 41.5643L49.2268 41.8567L46.9224 41.0901L45.0789 41.6684L44.8817 41.9188C44.073 42.9535 43.138 43.8885 42.1099 44.6973L41.8595 44.8923L41.2812 46.7358L42.0478 49.0379L41.7554 49.6782L37.6718 51.3711L37.0115 51.1251L35.9258 48.9559L34.2153 48.0608L33.9006 48.0984C32.6044 48.2535 31.2838 48.2535 29.9744 48.094L29.6597 48.0563L27.947 48.9515L26.8613 51.1251L26.201 51.3711L22.1174 49.6805L21.8249 49.0401L22.5916 46.7358L22.0133 44.8923L21.7629 44.6951C20.7259 43.8819 19.7909 42.9491 18.9844 41.921L18.7894 41.6706L16.9481 41.0923L14.646 41.8612L14.0056 41.5687L12.3128 37.4851L12.5588 36.8248L14.4333 35.8854L14.7678 35.6616L15.6231 34.0264L15.5854 33.7117C15.4303 32.4133 15.4303 31.0927 15.5899 29.7877L15.6275 29.4708L14.7324 27.7581L12.561 26.6724L12.3128 26.0121L14.0056 21.9285L14.646 21.636L16.9503 22.4027L18.7938 21.8244L18.991 21.574C19.802 20.537 20.7348 19.6042 21.7629 18.7955L22.0133 18.5983L22.5893 16.7548L21.8249 14.4571L22.1174 13.8168L26.201 12.1239L26.8613 12.3699L27.947 14.5391L29.6575 15.4342L29.9721 15.3966C31.2706 15.2415 32.5911 15.2415 33.8962 15.401L34.213 15.4387L35.9258 14.5413L37.0137 12.3677L37.674 12.1217L41.7576 13.8145L42.05 14.4549L41.2834 16.7592L41.8595 18.6027L42.1099 18.7999C43.1446 19.6109 44.0797 20.5437 44.8884 21.574L45.0834 21.8244L46.9269 22.4027L49.229 21.636L49.8693 21.9285L51.5622 26.0121L51.3162 26.6724L49.1448 27.7559Z" fill="white"/>
<path d="M31.9242 20.3864C25.7113 20.3864 20.6572 25.4316 20.6572 31.6356C20.6572 37.8397 25.7113 42.8849 31.9242 42.8849C38.1371 42.8849 43.1911 37.8397 43.1911 31.6356C43.1911 25.4316 38.1371 20.3864 31.9242 20.3864ZM31.9242 40.8375C26.8413 40.8375 22.7068 36.7096 22.7068 31.6356C22.7068 26.5616 26.8413 22.4337 31.9242 22.4337C37.007 22.4337 41.1416 26.5616 41.1416 31.6356C41.1416 36.7096 37.007 40.8375 31.9242 40.8375Z" fill="white"/>
</svg>
