<svg width="72" height="72" viewBox="0 0 72 72" fill="none" xmlns="http://www.w3.org/2000/svg">
<rect width="72" height="72" rx="16" fill="#232323"/>
<g clip-path="url(#clip0_1_167)">
<path d="M26.4094 23.0563C33.2632 23.0563 38.8187 28.8518 38.8187 36.0002C38.8187 43.1487 33.2627 48.9437 26.4094 48.9437C19.5564 48.9437 14 43.1487 14 36.0002C14 28.852 19.5559 23.0563 26.4094 23.0563ZM46.2266 23.8145C49.6534 23.8145 52.4314 29.2697 52.4314 36.0002H52.4319C52.4319 42.729 49.6539 48.1859 46.2272 48.1859C42.8006 48.1859 40.0224 42.729 40.0224 36.0002C40.0224 29.2715 42.7999 23.8145 46.2267 23.8145H46.2266ZM55.8177 25.0838C57.0227 25.0838 58 29.9712 58 36.0004C58 42.0275 57.0231 46.9169 55.8177 46.9169C54.6123 46.9169 53.6359 42.0289 53.6359 36.0004C53.6359 29.9716 54.6129 25.0838 55.8177 25.0838Z" fill="#1E69FF"/>
</g>
<defs>
<clipPath id="clip0_1_167">
<rect width="44" height="26" fill="white" transform="translate(14 23)"/>
</clipPath>
</defs>
</svg>
