<svg width="76" height="76" viewBox="0 0 76 76" fill="none" xmlns="http://www.w3.org/2000/svg">
<rect width="76" height="76" rx="16" fill="#042146"/>
<g clip-path="url(#clip0_148_2)">
<path d="M38 34.6667C36.6739 34.6667 35.4021 34.1399 34.4645 33.2022C33.5268 32.2645 33 30.9927 33 29.6667C33 28.3406 33.5268 27.0688 34.4645 26.1311C35.4021 25.1935 36.6739 24.6667 38 24.6667C39.3261 24.6667 40.5979 25.1935 41.5355 26.1311C42.4732 27.0688 43 28.3406 43 29.6667C43 30.9927 42.4732 32.2645 41.5355 33.2022C40.5979 34.1399 39.3261 34.6667 38 34.6667ZM32.9467 43.415C33.2894 42.3442 33.9634 41.41 34.8716 40.7472C35.7797 40.0844 36.8749 39.7272 37.9992 39.7272C39.1235 39.7272 40.2187 40.0844 41.1268 40.7472C42.0349 41.41 42.7089 42.3442 43.0517 43.415C43.1622 43.8433 43.4383 44.2102 43.8193 44.4349C44.2003 44.6597 44.655 44.7238 45.0833 44.6133C45.5117 44.5028 45.8785 44.2267 46.1033 43.8457C46.328 43.4647 46.3922 43.01 46.2817 42.5817C44.0967 34.3367 31.8983 34.34 29.72 42.5817C29.6598 42.7953 29.6429 43.0188 29.6703 43.239C29.6976 43.4592 29.7687 43.6718 29.8793 43.8642C29.9899 44.0566 30.1379 44.225 30.3144 44.3594C30.491 44.4939 30.6926 44.5918 30.9075 44.6473C31.1224 44.7028 31.3462 44.7148 31.5657 44.6826C31.7853 44.6505 31.9963 44.5748 32.1862 44.46C32.3762 44.3452 32.5413 44.1937 32.6719 44.0142C32.8024 43.8348 32.8959 43.631 32.9467 43.415ZM38.015 57.4417C37.1927 57.4422 36.399 57.1402 35.785 56.5933L29.5383 51.3333H24.6667C22.8986 51.3333 21.2029 50.631 19.9526 49.3807C18.7024 48.1305 18 46.4348 18 44.6667V24.6667C18 22.8986 18.7024 21.2029 19.9526 19.9526C21.2029 18.7024 22.8986 18 24.6667 18H51.3333C53.1014 18 54.7971 18.7024 56.0474 19.9526C57.2976 21.2029 58 22.8986 58 24.6667V44.6667C58 46.4348 57.2976 48.1305 56.0474 49.3807C54.7971 50.631 53.1014 51.3333 51.3333 51.3333H46.5783L40.1667 56.6333C39.5727 57.1572 38.807 57.4449 38.015 57.4417ZM24.6667 21.3333C23.7826 21.3333 22.9348 21.6845 22.3096 22.3096C21.6845 22.9348 21.3333 23.7826 21.3333 24.6667V44.6667C21.3333 45.5507 21.6845 46.3986 22.3096 47.0237C22.9348 47.6488 23.7826 48 24.6667 48H30.1483C30.5411 48 30.9212 48.1387 31.2217 48.3917L37.965 54.075L44.9183 48.3817C45.2171 48.1349 45.5925 47.9999 45.98 48H51.3333C52.2174 48 53.0652 47.6488 53.6904 47.0237C54.3155 46.3986 54.6667 45.5507 54.6667 44.6667V24.6667C54.6667 23.7826 54.3155 22.9348 53.6904 22.3096C53.0652 21.6845 52.2174 21.3333 51.3333 21.3333H24.6667Z" fill="#03D5D6"/>
</g>
<defs>
<clipPath id="clip0_148_2">
<rect width="40" height="40" fill="white" transform="translate(18 18)"/>
</clipPath>
</defs>
</svg>
