<svg width="76" height="76" viewBox="0 0 76 76" fill="none" xmlns="http://www.w3.org/2000/svg">
<rect width="76" height="76" rx="16" fill="#042146"/>
<g clip-path="url(#clip0_24_10)">
<path d="M49.6667 24.6667H43V23C43 21.6739 42.4732 20.4021 41.5355 19.4645C40.5979 18.5268 39.3261 18 38 18C36.6739 18 35.4021 18.5268 34.4645 19.4645C33.5268 20.4021 33 21.6739 33 23V24.6667H26.3333C24.124 24.6693 22.0059 25.5481 20.4437 27.1104C18.8815 28.6726 18.0026 30.7907 18 33V49.6667C18.0026 51.876 18.8815 53.9941 20.4437 55.5563C22.0059 57.1185 24.124 57.9974 26.3333 58H49.6667C51.876 57.9974 53.9941 57.1185 55.5563 55.5563C57.1185 53.9941 57.9974 51.876 58 49.6667V33C57.9974 30.7907 57.1185 28.6726 55.5563 27.1104C53.9941 25.5481 51.876 24.6693 49.6667 24.6667ZM36.3333 23C36.3333 22.558 36.5089 22.134 36.8215 21.8215C37.134 21.5089 37.558 21.3333 38 21.3333C38.442 21.3333 38.8659 21.5089 39.1785 21.8215C39.4911 22.134 39.6667 22.558 39.6667 23V26.3333C39.6667 26.7754 39.4911 27.1993 39.1785 27.5118C38.8659 27.8244 38.442 28 38 28C37.558 28 37.134 27.8244 36.8215 27.5118C36.5089 27.1993 36.3333 26.7754 36.3333 26.3333V23ZM54.6667 49.6667C54.6667 50.9927 54.1399 52.2645 53.2022 53.2022C52.2645 54.1399 50.9927 54.6667 49.6667 54.6667H26.3333C25.0073 54.6667 23.7355 54.1399 22.7978 53.2022C21.8601 52.2645 21.3333 50.9927 21.3333 49.6667V33C21.3333 31.6739 21.8601 30.4021 22.7978 29.4645C23.7355 28.5268 25.0073 28 26.3333 28H33.3067C33.6461 28.9742 34.2803 29.8187 35.1212 30.4163C35.9622 31.0139 36.9683 31.3349 38 31.3349C39.0317 31.3349 40.0378 31.0139 40.8788 30.4163C41.7197 29.8187 42.3539 28.9742 42.6933 28H49.6667C50.9927 28 52.2645 28.5268 53.2022 29.4645C54.1399 30.4021 54.6667 31.6739 54.6667 33V49.6667ZM34.6667 34.6667H26.3333C25.8913 34.6667 25.4674 34.8423 25.1548 35.1548C24.8423 35.4674 24.6667 35.8913 24.6667 36.3333V49.6667C24.6667 50.1087 24.8423 50.5326 25.1548 50.8452C25.4674 51.1577 25.8913 51.3333 26.3333 51.3333H34.6667C35.1087 51.3333 35.5326 51.1577 35.8452 50.8452C36.1577 50.5326 36.3333 50.1087 36.3333 49.6667V36.3333C36.3333 35.8913 36.1577 35.4674 35.8452 35.1548C35.5326 34.8423 35.1087 34.6667 34.6667 34.6667ZM33 48H28V38H33V48ZM51.3333 43C51.3333 43.442 51.1577 43.8659 50.8452 44.1785C50.5326 44.4911 50.1087 44.6667 49.6667 44.6667H41.3333C40.8913 44.6667 40.4674 44.4911 40.1548 44.1785C39.8423 43.8659 39.6667 43.442 39.6667 43C39.6667 42.558 39.8423 42.134 40.1548 41.8215C40.4674 41.5089 40.8913 41.3333 41.3333 41.3333H49.6667C50.1087 41.3333 50.5326 41.5089 50.8452 41.8215C51.1577 42.134 51.3333 42.558 51.3333 43ZM51.3333 36.3333C51.3333 36.7754 51.1577 37.1993 50.8452 37.5118C50.5326 37.8244 50.1087 38 49.6667 38H41.3333C40.8913 38 40.4674 37.8244 40.1548 37.5118C39.8423 37.1993 39.6667 36.7754 39.6667 36.3333C39.6667 35.8913 39.8423 35.4674 40.1548 35.1548C40.4674 34.8423 40.8913 34.6667 41.3333 34.6667H49.6667C50.1087 34.6667 50.5326 34.8423 50.8452 35.1548C51.1577 35.4674 51.3333 35.8913 51.3333 36.3333ZM48 49.6667C48 50.1087 47.8244 50.5326 47.5118 50.8452C47.1993 51.1577 46.7754 51.3333 46.3333 51.3333H41.3333C40.8913 51.3333 40.4674 51.1577 40.1548 50.8452C39.8423 50.5326 39.6667 50.1087 39.6667 49.6667C39.6667 49.2246 39.8423 48.8007 40.1548 48.4882C40.4674 48.1756 40.8913 48 41.3333 48H46.3333C46.7754 48 47.1993 48.1756 47.5118 48.4882C47.8244 48.8007 48 49.2246 48 49.6667Z" fill="#03D5D6"/>
</g>
<defs>
<clipPath id="clip0_24_10">
<rect width="40" height="40" fill="white" transform="translate(18 18)"/>
</clipPath>
</defs>
</svg>
