<svg width="76" height="76" viewBox="0 0 76 76" fill="none" xmlns="http://www.w3.org/2000/svg">
<rect width="76" height="76" rx="16" fill="#042146"/>
<g clip-path="url(#clip0_24_6)">
<path d="M42.7183 46.3333C42.2917 46.3333 41.865 46.17 41.54 45.845C40.8883 45.1933 40.8883 44.14 41.54 43.4883L45.845 39.1833C46.1583 38.8683 46.3333 38.45 46.3333 38.0033C46.3333 37.5567 46.16 37.14 45.845 36.825L41.54 32.5183C40.8883 31.8667 40.8883 30.8117 41.54 30.1617C42.1917 29.51 43.245 29.51 43.8967 30.1617L48.2017 34.4667C49.145 35.41 49.6667 36.6667 49.6667 38.0017C49.6667 39.3367 49.1467 40.5933 48.2017 41.5383L43.8967 45.8433C43.5717 46.1683 43.145 46.3333 42.7183 46.3333ZM34.46 45.8367C35.1117 45.185 35.1117 44.1317 34.46 43.48L30.155 39.175C29.84 38.86 29.6667 38.4417 29.6667 37.995C29.6667 37.5483 29.84 37.1317 30.155 36.8167L34.46 32.5117C35.1117 31.86 35.1117 30.8067 34.46 30.155C33.8083 29.5033 32.755 29.5033 32.1033 30.155L27.7983 34.46C26.8533 35.405 26.3333 36.66 26.3333 37.9967C26.3333 39.3333 26.8533 40.5883 27.7983 41.5333L32.1033 45.8383C32.4283 46.1633 32.855 46.3267 33.2817 46.3267C33.7083 46.3267 34.135 46.1617 34.46 45.8367ZM58 49.6667V26.3333C58 21.7383 54.2617 18 49.6667 18H26.3333C21.7383 18 18 21.7383 18 26.3333V49.6667C18 54.2617 21.7383 58 26.3333 58H49.6667C54.2617 58 58 54.2617 58 49.6667ZM49.6667 21.3333C52.4233 21.3333 54.6667 23.5767 54.6667 26.3333V49.6667C54.6667 52.4233 52.4233 54.6667 49.6667 54.6667H26.3333C23.5767 54.6667 21.3333 52.4233 21.3333 49.6667V26.3333C21.3333 23.5767 23.5767 21.3333 26.3333 21.3333H49.6667Z" fill="#03D5D6"/>
</g>
<defs>
<clipPath id="clip0_24_6">
<rect width="40" height="40" fill="white" transform="translate(18 18)"/>
</clipPath>
</defs>
</svg>
