<svg width="72" height="72" viewBox="0 0 72 72" fill="none" xmlns="http://www.w3.org/2000/svg">
<rect width="72" height="72" rx="16" fill="#232323"/>
<path d="M28.9506 51C43.2909 51 51.1331 39.4593 51.1331 29.4516C51.1331 29.1238 51.1262 28.7976 51.111 28.4727C52.6369 27.4001 53.9539 26.0721 55 24.551C53.603 25.1543 52.0998 25.5603 50.5228 25.7434C52.1325 24.8058 53.3682 23.3225 53.9512 21.5545C52.4208 22.4364 50.7465 23.0581 49.0006 23.3928C47.5779 21.9207 45.5524 21 43.3097 21C39.0042 21 35.5129 24.3916 35.5129 28.5724C35.5129 29.1667 35.5814 29.7447 35.7152 30.2992C29.2355 29.9825 23.4897 26.9689 19.6444 22.3865C18.9518 23.5422 18.5875 24.8558 18.5887 26.193C18.5887 28.8205 19.9651 31.1401 22.0582 32.4971C20.8201 32.4604 19.6092 32.1355 18.5273 31.5499C18.5261 31.5817 18.5261 31.6126 18.5261 31.6466C18.5261 35.3144 21.2134 38.3767 24.7808 39.0706C24.1108 39.2478 23.4194 39.3374 22.725 39.337C22.2235 39.337 21.7348 39.2891 21.2598 39.2006C22.2523 42.2097 25.1305 44.3995 28.5428 44.4607C25.8744 46.4923 22.513 47.7025 18.8597 47.7025C18.2382 47.703 17.6172 47.668 17 47.5975C20.4504 49.7459 24.5475 50.9995 28.951 50.9995" fill="#1E69FF"/>
</svg>
