<svg width="29" height="26" viewBox="0 0 29 26" fill="none" xmlns="http://www.w3.org/2000/svg">
<path fill-rule="evenodd" clip-rule="evenodd" d="M20.1887 0C24.598 0 28.1847 3.58667 28.1847 7.99733V17.5667C28.1847 21.976 24.598 25.564 20.1887 25.564H8.66335C4.25402 25.564 0.666016 21.976 0.666016 17.5667V7.99733C0.666016 3.58667 4.25402 0 8.66335 0H20.1887ZM20.1887 2H8.66335C5.35668 2 2.66602 4.69067 2.66602 7.99733V17.5667C2.66602 20.8733 5.35668 23.564 8.66335 23.564H20.1887C23.4953 23.564 26.1847 20.8733 26.1847 17.5667V17.1933L21.7875 17.1941C19.2581 17.1941 17.1995 15.1368 17.1981 12.6088C17.1981 10.0781 19.2568 8.01947 21.7875 8.01813L26.1847 8.01733V7.99733C26.1847 4.69067 23.4953 2 20.1887 2ZM26.1847 10.0173L21.7875 10.0181C20.3595 10.0195 19.1981 11.1808 19.1981 12.6075C19.1981 14.0328 20.3608 15.1941 21.7875 15.1941L26.1847 15.1933V10.0173ZM22.3976 11.5248C22.9496 11.5248 23.3976 11.9728 23.3976 12.5248C23.3976 13.0768 22.9496 13.5248 22.3976 13.5248H21.9816C21.4296 13.5248 20.9816 13.0768 20.9816 12.5248C20.9816 11.9728 21.4296 11.5248 21.9816 11.5248H22.3976ZM14.9127 6.0508C15.4647 6.0508 15.9127 6.4988 15.9127 7.0508C15.9127 7.6028 15.4647 8.0508 14.9127 8.0508H7.71402C7.16202 8.0508 6.71402 7.6028 6.71402 7.0508C6.71402 6.4988 7.16202 6.0508 7.71402 6.0508H14.9127Z" fill="white"/>
</svg>
